# xmcd
#
# Track frame offsets:
#	150
#	58060
#	103075
#	158113
#	200493
#	230647
#	250593
#	280383
#	327223
#
# Disc length: 4735 seconds
#
# Revision: 1
# Processed by: cddbd v1.5.2PL0 Copyright (c) Steve Scherf et al.
# Submitted via: audiograbber 1.83.01
#
DISCID=7e127d09
DTITLE=Grateful Dead - 92-03-05 Hampton Coliseum, Hampton VA
DYEAR=1900
DGENRE=
TTITLE0=Estimated Prophet
TTITLE1=He's Gone
TTITLE2=Drums
TTITLE3=Space
TTITLE4=The Wheel
TTITLE5=I Need A Miracle
TTITLE6=So Many Roads
TTITLE7=Good Lovin
TTITLE8=US Blues
EXTD=
EXTT0=
EXTT1=
EXTT2=
EXTT3=
EXTT4=
EXTT5=
EXTT6=
EXTT7=
EXTT8=
PLAYORDER=
